<svg aria-hidden="true" style="position: absolute; width: 0; height: 0; overflow: hidden;" version="1.1" xmlns="http://www.w3.org/2000/svg" xmlns:xlink="http://www.w3.org/1999/xlink">
<defs>
<symbol id="icon-arrow_left" viewBox="0 0 32 32">
<path stroke-linejoin="round" stroke-linecap="round" stroke-miterlimit="4" stroke-width="4.2667" d="M23.063 2.624l-13.232 13.232 13.232 13.232"></path>
</symbol>
<symbol id="icon-arrow_right" viewBox="0 0 32 32">
<path stroke-linejoin="round" stroke-linecap="round" stroke-miterlimit="4" stroke-width="4.2667" d="M8.937 29.751l13.232-13.232-13.232-13.232"></path>
</symbol>
<symbol id="icon-date" viewBox="0 0 32 32">
<path d="M16 0c-8.836 0-16 7.164-16 16s7.164 16 16 16c8.836 0 16-7.164 16-16s-7.164-16-16-16zM23.385 18.462h-7.385c-0.326 0-0.639-0.13-0.87-0.361s-0.36-0.544-0.36-0.87v-11.077c0-0.326 0.13-0.639 0.36-0.87s0.544-0.36 0.87-0.36c0.326 0 0.639 0.13 0.87 0.36s0.36 0.544 0.36 0.87v9.846h6.154c0.327 0 0.639 0.13 0.87 0.36s0.361 0.544 0.361 0.87-0.13 0.639-0.361 0.87c-0.231 0.231-0.544 0.361-0.87 0.361z"></path>
</symbol>
<symbol id="icon-facebook" viewBox="0 0 32 32">
<path d="M31.183 16.854c0-7.983-6.722-14.456-15.012-14.456s-15.012 6.473-15.012 14.456c0 7.215 5.489 13.195 12.666 14.281v-10.101h-3.813v-4.18h3.813v-3.185c0-3.622 2.242-5.625 5.67-5.625 1.643 0 3.361 0.283 3.361 0.283v3.558h-1.894c-1.864 0-2.447 1.114-2.447 2.259v2.71h4.163l-0.665 4.18h-3.497v10.102c7.177-1.085 12.666-7.065 12.666-14.282z"></path>
</symbol>
<symbol id="icon-feedback" viewBox="0 0 32 32">
<path d="M26.474 5.948c-1.537 0.651-2.878 1.641-4.023 2.969s-1.836 2.682-2.070 4.063c-0.13 0.729-0.195 1.354-0.195 1.875 0 0.599 0.065 1.094 0.195 1.484 1.224-1.276 2.773-1.914 4.648-1.914s3.398 0.547 4.57 1.641 1.758 2.604 1.758 4.531c0 1.823-0.625 3.307-1.875 4.453-1.224 1.146-2.786 1.719-4.687 1.719-2.604 0-4.505-0.938-5.703-2.813-0.547-0.807-0.977-1.797-1.289-2.969-0.313-1.198-0.469-2.422-0.469-3.672 0-2.734 0.703-5.234 2.109-7.5s3.503-4.036 6.289-5.313l0.742 1.445zM9.99 5.948c-1.536 0.651-2.878 1.641-4.023 2.969s-1.836 2.682-2.070 4.063c-0.13 0.729-0.195 1.354-0.195 1.875 0 0.599 0.065 1.094 0.195 1.484 1.224-1.276 2.773-1.914 4.648-1.914s3.398 0.547 4.57 1.641c1.172 1.094 1.758 2.604 1.758 4.531 0 1.823-0.625 3.307-1.875 4.453-1.224 1.146-2.786 1.719-4.688 1.719-2.604 0-4.505-0.938-5.703-2.813-0.547-0.807-0.977-1.797-1.289-2.969-0.313-1.198-0.469-2.422-0.469-3.672 0-2.734 0.703-5.234 2.109-7.5s3.503-4.036 6.289-5.313l0.742 1.445z"></path>
</symbol>
<symbol id="icon-house1" viewBox="0 0 32 32">
<path d="M0 0h32v32h-32v-32z"></path>
</symbol>
<symbol id="icon-house2" viewBox="0 0 32 32">
<path d="M0 0h32v32h-32v-32z"></path>
</symbol>
<symbol id="icon-house3" viewBox="0 0 32 32">
<path d="M0 0h32v32h-32v-32z"></path>
</symbol>
<symbol id="icon-instagram" viewBox="0 0 32 32">
<path d="M22.108 3.966c1.657 0.005 3.246 0.641 4.418 1.77s1.833 2.658 1.837 4.254v12.046c-0.005 1.596-0.666 3.126-1.837 4.254s-2.76 1.765-4.418 1.769h-12.509c-1.657-0.005-3.246-0.641-4.418-1.769s-1.833-2.658-1.838-4.254v-12.046c0.005-1.596 0.666-3.125 1.838-4.254s2.76-1.765 4.418-1.77h12.509zM22.108 1.557h-12.509c-4.816 0-8.757 3.795-8.757 8.433v12.046c0 4.638 3.941 8.433 8.757 8.433h12.509c4.816 0 8.757-3.795 8.757-8.433v-12.046c0-4.638-3.941-8.433-8.757-8.433z"></path>
<path d="M23.985 9.99c-0.371 0-0.734-0.106-1.043-0.305s-0.549-0.481-0.691-0.811c-0.142-0.33-0.179-0.694-0.107-1.044s0.251-0.672 0.514-0.925c0.262-0.253 0.597-0.425 0.961-0.495s0.741-0.034 1.084 0.103c0.343 0.137 0.636 0.368 0.842 0.666s0.316 0.646 0.316 1.004c0 0.237-0.048 0.473-0.142 0.692s-0.232 0.419-0.407 0.587-0.381 0.301-0.609 0.392c-0.228 0.091-0.472 0.137-0.719 0.136zM15.854 11.194c0.99 0 1.957 0.283 2.78 0.812s1.464 1.282 1.843 2.163c0.379 0.88 0.478 1.849 0.285 2.784s-0.67 1.793-1.37 2.467c-0.7 0.674-1.591 1.133-2.562 1.319s-1.977 0.090-2.891-0.274c-0.914-0.365-1.696-0.982-2.246-1.775s-0.843-1.724-0.843-2.677c0.001-1.278 0.529-2.502 1.467-3.406s2.21-1.412 3.537-1.413zM15.854 8.785c-1.485 0-2.936 0.424-4.17 1.218s-2.196 1.923-2.764 3.244c-0.568 1.321-0.717 2.774-0.427 4.176s1.004 2.69 2.054 3.701c1.050 1.011 2.387 1.699 3.843 1.978s2.965 0.136 4.337-0.411c1.372-0.547 2.544-1.473 3.369-2.662s1.265-2.586 1.265-4.015c0-1.917-0.791-3.755-2.198-5.111s-3.317-2.117-5.307-2.117z"></path>
</symbol>
<symbol id="icon-location" viewBox="0 0 32 32">
<path stroke-linejoin="round" stroke-linecap="round" stroke-miterlimit="4" stroke-width="2" d="M16 1c-5.521 0-10 4.427-10 9.88 0 6.274 6.667 16.217 9.115 19.652 0.102 0.145 0.235 0.263 0.389 0.344s0.324 0.124 0.497 0.124 0.343-0.042 0.497-0.124c0.154-0.081 0.287-0.199 0.389-0.344 2.448-3.433 9.115-13.372 9.115-19.652 0-5.453-4.479-9.88-10-9.88z"></path>
<path stroke-linejoin="round" stroke-linecap="round" stroke-miterlimit="4" stroke-width="2" d="M16 16c2.209 0 4-1.791 4-4s-1.791-4-4-4c-2.209 0-4 1.791-4 4s1.791 4 4 4z"></path>
</symbol>
<symbol id="icon-mail" viewBox="0 0 32 32">
<path stroke-linejoin="round" stroke-linecap="round" stroke-miterlimit="4" stroke-width="2.2857" d="M28 4.571h-24c-1.578 0-2.857 1.279-2.857 2.857v17.143c0 1.578 1.279 2.857 2.857 2.857h24c1.578 0 2.857-1.279 2.857-2.857v-17.143c0-1.578-1.279-2.857-2.857-2.857z"></path>
<path stroke-linejoin="round" stroke-linecap="round" stroke-miterlimit="4" stroke-width="2.2857" d="M5.714 9.143l10.286 8 10.286-8"></path>
</symbol>
<symbol id="icon-note" viewBox="0 0 32 32">
<path stroke-linejoin="round" stroke-linecap="round" stroke-miterlimit="4" stroke-width="2.3704" d="M24.296 13.236v14.218c0 0.406-0.065 0.808-0.192 1.183s-0.312 0.716-0.546 1.003c-0.234 0.287-0.512 0.515-0.817 0.67s-0.633 0.235-0.964 0.235h-15.111c-0.668 0-1.309-0.326-1.781-0.905s-0.738-1.366-0.738-2.186v-18.546c0-0.82 0.265-1.606 0.738-2.186s1.113-0.905 1.781-0.905h10.545"></path>
<path d="M28.774 0.418c-0.095-0.128-0.21-0.231-0.338-0.302s-0.267-0.111-0.407-0.115c-0.141-0.004-0.281 0.027-0.411 0.091s-0.249 0.16-0.349 0.282l-0.802 0.979c-0.097 0.119-0.152 0.281-0.152 0.45s0.055 0.33 0.152 0.45l0.735 0.9c0.048 0.059 0.105 0.107 0.168 0.139s0.131 0.049 0.199 0.049c0.068 0 0.136-0.017 0.199-0.049s0.12-0.079 0.169-0.139l0.782-0.954c0.395-0.484 0.432-1.273 0.055-1.78zM24.846 3.341l-11.7 14.333c-0.071 0.087-0.123 0.194-0.15 0.313l-0.541 1.978c-0.013 0.054-0.014 0.111-0.003 0.165s0.034 0.104 0.066 0.143c0.032 0.040 0.073 0.068 0.117 0.081s0.091 0.013 0.134-0.003l1.611-0.664c0.096-0.033 0.184-0.097 0.255-0.184l11.68-14.36c0.108-0.134 0.169-0.315 0.169-0.503s-0.061-0.369-0.169-0.503l-0.645-0.795c-0.109-0.134-0.258-0.209-0.412-0.209s-0.302 0.075-0.412 0.209z"></path>
</symbol>
<symbol id="icon-phone" viewBox="0 0 32 32">
<path stroke-linejoin="miter" stroke-linecap="butt" stroke-miterlimit="10" stroke-width="2.4615" d="M29.847 24.377c-1.128-1.136-3.859-2.794-5.183-3.462-1.726-0.869-1.868-0.94-3.224 0.067-0.905 0.672-1.506 1.273-2.565 1.047s-3.359-1.499-5.374-3.507c-2.014-2.008-3.361-4.375-3.588-5.43s0.384-1.649 1.050-2.556c0.939-1.278 0.868-1.491 0.065-3.216-0.626-1.342-2.332-4.047-3.472-5.169-1.22-1.205-1.22-0.992-2.006-0.665-0.64 0.269-1.254 0.597-1.834 0.978-1.136 0.755-1.767 1.382-2.208 2.324s-0.639 3.151 1.638 7.288c2.277 4.137 3.875 6.252 7.182 9.549s5.85 5.070 9.567 7.155c4.599 2.575 6.362 2.073 7.307 1.633s1.575-1.065 2.331-2.201c0.382-0.579 0.71-1.192 0.98-1.832 0.327-0.783 0.54-0.783-0.667-2.002z"></path>
</symbol>
<symbol id="icon-pinterest" viewBox="0 0 32 32">
<path d="M15.824 0c-8.423 0-15.253 6.827-15.253 15.246 0 6.242 3.759 11.605 9.132 13.967-0.041-1.062-0.007-2.342 0.266-3.499 0.293-1.239 1.961-8.311 1.961-8.311s-0.49-0.973-0.49-2.41c0-2.26 1.307-3.948 2.942-3.948 1.389 0 2.056 1.041 2.056 2.287 0 1.395-0.892 3.478-1.348 5.411-0.381 1.62 0.81 2.934 2.411 2.934 2.887 0 4.835-3.709 4.835-8.106 0-3.342-2.254-5.84-6.346-5.84-4.624 0-7.511 3.451-7.511 7.303 0 1.327 0.395 2.266 1.008 2.988 0.279 0.333 0.32 0.47 0.218 0.851-0.075 0.279-0.238 0.953-0.313 1.225-0.102 0.388-0.415 0.524-0.763 0.381-2.131-0.871-3.126-3.199-3.126-5.826 0-4.329 3.657-9.522 10.902-9.522 5.822 0 9.656 4.213 9.656 8.733 0 5.983-3.33 10.448-8.233 10.448-1.648 0-3.194-0.892-3.725-1.899 0 0-0.885 3.512-1.076 4.193-0.32 1.178-0.953 2.348-1.532 3.267 1.404 0.414 2.86 0.625 4.324 0.626 8.423 0 15.253-6.827 15.253-15.246s-6.823-15.253-15.246-15.253z"></path>
</symbol>
<symbol id="icon-sec_tools" viewBox="0 0 32 32">
<path d="M26.553 19.677h2.988v-2.577h-8.639c-0.157 2.674-2.319 4.795-4.962 4.795s-4.805-2.121-4.962-4.795h-8.079v2.577h2.467c0.132 0.53 0.305 1.049 0.512 1.56 0.236 0.575 0.515 1.124 0.839 1.644l-2.159 2.218 3.4 3.494 2.162-2.222c0.5 0.326 1.028 0.61 1.578 0.849 0.619 0.268 1.257 0.478 1.908 0.623v3.090h4.814v-3.116c0.613-0.145 1.213-0.345 1.798-0.597 0.591-0.255 1.153-0.562 1.684-0.917l2.124 2.183 3.403-3.497-2.159-2.218c0.295-0.488 0.55-1.001 0.77-1.534 0.207-0.51 0.38-1.030 0.512-1.56z"></path>
<path d="M25.269 5.889v5.203c0 0.353-0.281 0.64-0.627 0.64h-0.444c-0.346 0-0.627-0.286-0.627-0.64v-6.556c-1.287-0.873-2.731-1.526-4.279-1.899v9.027c0 0.353-0.281 0.639-0.627 0.639h-4.9c-0.346 0-0.627-0.286-0.627-0.639v-9.027c-1.529 0.373-2.973 1.033-4.26 1.899v6.556c0 0.353-0.281 0.64-0.627 0.64h-0.444c-0.346 0-0.627-0.286-0.627-0.64v-5.203c-2.626 2.478-4.279 6.016-4.279 9.953h26.642c0.007-3.937-1.64-7.475-4.273-9.953z"></path>
<path d="M18.037 10.588c0 0.298-0.21 0.539-0.475 0.539h-2.684c-0.258 0-0.474-0.241-0.474-0.538v-8.984c0-0.298 0.21-0.538 0.474-0.538h2.684c0.258 0 0.475 0.241 0.475 0.538v8.984z"></path>
</symbol>
<symbol id="icon-serv_1" viewBox="0 0 32 32">
<path d="M0 0h32v32h-32v-32z"></path>
</symbol>
<symbol id="icon-serv_2" viewBox="0 0 32 32">
<path d="M0 0h32v32h-32v-32z"></path>
</symbol>
<symbol id="icon-serv_3" viewBox="0 0 32 32">
<path d="M0 0h32v32h-32v-32z"></path>
</symbol>
<symbol id="icon-serv_4" viewBox="0 0 32 32">
<path d="M0 0h32v32h-32v-32z"></path>
</symbol>
<symbol id="icon-serv_5" viewBox="0 0 32 32">
<path d="M0 0h32v32h-32v-32z"></path>
</symbol>
<symbol id="icon-serv_6" viewBox="0 0 32 32">
<path d="M0 0h32v32h-32v-32z"></path>
</symbol>
<symbol id="icon-tools" viewBox="0 0 32 32">
<path d="M32 15.544c-0.010-0.187-0.088-0.365-0.22-0.502s-0.309-0.223-0.5-0.245l-1.972-0.311c-0.089-0.014-0.17-0.056-0.233-0.119s-0.102-0.144-0.113-0.231c-0.038-0.236-0.077-0.482-0.131-0.715-0.017-0.085-0.007-0.172 0.029-0.251s0.097-0.144 0.173-0.188l1.752-0.95c0.174-0.086 0.309-0.232 0.38-0.41s0.072-0.374 0.004-0.553l-0.304-0.818c-0.067-0.179-0.199-0.328-0.371-0.418s-0.372-0.115-0.562-0.070l-1.965 0.375c-0.088 0.015-0.178 0.003-0.259-0.035s-0.146-0.1-0.189-0.176c-0.115-0.209-0.239-0.423-0.369-0.632-0.047-0.075-0.069-0.162-0.063-0.249s0.040-0.171 0.097-0.239l1.308-1.474c0.133-0.139 0.209-0.321 0.215-0.511s-0.060-0.376-0.185-0.522l-0.571-0.669c-0.124-0.147-0.3-0.243-0.493-0.271s-0.39 0.015-0.552 0.121l-1.721 1.008c-0.076 0.045-0.165 0.064-0.254 0.056s-0.172-0.045-0.238-0.103c-0.19-0.163-0.385-0.32-0.567-0.465-0.070-0.054-0.121-0.128-0.144-0.212s-0.020-0.173 0.012-0.254l0.712-1.832c0.078-0.175 0.087-0.371 0.026-0.552s-0.188-0.334-0.357-0.429l-0.776-0.442c-0.169-0.095-0.368-0.126-0.559-0.087s-0.36 0.146-0.476 0.299l-1.258 1.542c-0.045 0.067-0.113 0.117-0.192 0.14s-0.163 0.020-0.239-0.011c-0.047-0.019-0.444-0.177-0.752-0.278-0.085-0.027-0.158-0.080-0.21-0.15s-0.079-0.156-0.078-0.242l0.030-1.957c0.011-0.191-0.050-0.379-0.172-0.53s-0.295-0.252-0.488-0.287l-0.881-0.15c-0.192-0.032-0.389 0.004-0.556 0.103s-0.29 0.254-0.348 0.435l-0.654 1.862c-0.030 0.083-0.086 0.154-0.16 0.203s-0.163 0.074-0.252 0.071h-0.75c-0.089 0.002-0.176-0.024-0.25-0.073s-0.129-0.12-0.158-0.202l-0.651-1.852c-0.057-0.183-0.181-0.339-0.347-0.439s-0.365-0.138-0.558-0.105l-0.882 0.15c-0.192 0.034-0.364 0.135-0.485 0.284s-0.183 0.336-0.173 0.526l0.031 1.964c0.001 0.088-0.028 0.174-0.082 0.245s-0.129 0.123-0.215 0.149c-0.176 0.067-0.559 0.209-0.732 0.273-0.154 0.054-0.322-0.005-0.457-0.158l-1.251-1.501c-0.115-0.154-0.284-0.262-0.475-0.302s-0.391-0.010-0.56 0.085l-0.774 0.438c-0.171 0.096-0.299 0.25-0.361 0.432s-0.051 0.381 0.028 0.557l0.712 1.827c0.031 0.082 0.035 0.17 0.012 0.254s-0.073 0.159-0.142 0.213c-0.187 0.15-0.378 0.3-0.569 0.467-0.066 0.058-0.148 0.094-0.236 0.102s-0.176-0.010-0.252-0.054l-1.701-1.028c-0.163-0.104-0.36-0.146-0.553-0.118s-0.369 0.123-0.494 0.268l-0.568 0.667c-0.126 0.145-0.193 0.331-0.188 0.521s0.082 0.372 0.216 0.511l1.314 1.473c0.058 0.066 0.093 0.149 0.099 0.236s-0.016 0.174-0.065 0.248c-0.132 0.204-0.257 0.419-0.371 0.634-0.043 0.077-0.109 0.139-0.19 0.177s-0.172 0.050-0.261 0.034l-1.962-0.37c-0.19-0.045-0.39-0.020-0.562 0.070s-0.304 0.239-0.371 0.418l-0.308 0.817c-0.068 0.179-0.066 0.376 0.004 0.554s0.206 0.324 0.38 0.411l1.752 0.95c0.079 0.042 0.141 0.109 0.178 0.189s0.046 0.17 0.026 0.255l-0.018 0.095c-0.040 0.209-0.077 0.408-0.112 0.619-0.012 0.086-0.052 0.166-0.114 0.228s-0.142 0.105-0.229 0.12l-1.976 0.312c-0.193 0.023-0.371 0.114-0.501 0.256s-0.202 0.325-0.203 0.515v0.869c-0.001 0.191 0.070 0.375 0.2 0.517s0.31 0.232 0.504 0.253l1.975 0.311c0.089 0.014 0.17 0.056 0.233 0.119s0.102 0.144 0.113 0.232c0.038 0.237 0.077 0.482 0.131 0.715 0.017 0.085 0.007 0.172-0.029 0.251s-0.097 0.145-0.173 0.188l-1.752 0.951c-0.174 0.087-0.309 0.233-0.38 0.41s-0.072 0.374-0.004 0.553l0.308 0.818c0.067 0.179 0.199 0.328 0.371 0.418s0.372 0.115 0.562 0.071l1.965-0.372c0.088-0.016 0.179-0.004 0.259 0.034s0.146 0.1 0.189 0.177c0.115 0.21 0.239 0.423 0.369 0.632 0.047 0.075 0.070 0.162 0.064 0.249s-0.040 0.171-0.097 0.239l-1.308 1.474c-0.134 0.138-0.212 0.319-0.22 0.51s0.057 0.377 0.181 0.524l0.57 0.669c0.124 0.147 0.3 0.244 0.493 0.271s0.39-0.015 0.552-0.121l1.721-1.008c0.076-0.045 0.165-0.064 0.254-0.056s0.172 0.044 0.238 0.103c0.191 0.163 0.385 0.32 0.567 0.465 0.070 0.054 0.12 0.128 0.144 0.212s0.020 0.173-0.011 0.254l-0.713 1.832c-0.078 0.175-0.087 0.371-0.026 0.552s0.188 0.334 0.357 0.429l0.778 0.438c0.169 0.095 0.368 0.126 0.559 0.087s0.36-0.145 0.476-0.299l1.273-1.528c0.108-0.13 0.277-0.188 0.402-0.138 0.268 0.108 0.447 0.169 0.765 0.273 0.085 0.027 0.158 0.080 0.21 0.15s0.079 0.156 0.078 0.242l-0.031 1.956c-0.010 0.191 0.051 0.379 0.172 0.529s0.294 0.252 0.487 0.287l0.881 0.15c0.192 0.033 0.389-0.004 0.556-0.103s0.29-0.254 0.348-0.435l0.654-1.859c0.030-0.083 0.086-0.154 0.16-0.203s0.163-0.074 0.252-0.071h0.75c0.089-0.002 0.176 0.024 0.25 0.073s0.129 0.12 0.158 0.202l0.652 1.852c0.050 0.161 0.152 0.302 0.291 0.402s0.306 0.154 0.478 0.155c0.046 0 0.092-0.004 0.137-0.012l0.882-0.15c0.192-0.034 0.364-0.135 0.485-0.284s0.183-0.336 0.173-0.526l-0.031-1.964c-0.001-0.087 0.027-0.171 0.079-0.241s0.125-0.122 0.21-0.149c0.295-0.097 0.503-0.175 0.685-0.244l0.046-0.017c0.238-0.080 0.354 0.017 0.421 0.098l1.288 1.549c0.116 0.153 0.285 0.26 0.476 0.299s0.389 0.008 0.558-0.087l0.775-0.438c0.169-0.095 0.297-0.249 0.358-0.43s0.052-0.378-0.027-0.553l-0.711-1.827c-0.031-0.081-0.036-0.17-0.012-0.254s0.073-0.159 0.142-0.213c0.187-0.15 0.378-0.3 0.569-0.467 0.066-0.058 0.149-0.094 0.238-0.102s0.177 0.011 0.253 0.056l1.722 1.006c0.163 0.104 0.36 0.146 0.553 0.118s0.369-0.123 0.494-0.268l0.569-0.668c0.126-0.145 0.193-0.331 0.188-0.521s-0.082-0.372-0.216-0.511l-1.312-1.477c-0.058-0.066-0.093-0.149-0.099-0.236s0.016-0.174 0.065-0.248c0.132-0.203 0.257-0.418 0.371-0.634 0.043-0.077 0.109-0.139 0.19-0.177s0.172-0.050 0.26-0.035l1.96 0.373c0.19 0.045 0.39 0.020 0.562-0.070s0.304-0.239 0.371-0.418l0.304-0.817c0.068-0.179 0.066-0.376-0.004-0.553s-0.206-0.324-0.38-0.411l-1.754-0.951c-0.078-0.043-0.139-0.109-0.175-0.189s-0.045-0.169-0.025-0.254l0.018-0.095c0.040-0.209 0.077-0.408 0.112-0.619 0.012-0.086 0.052-0.166 0.114-0.228s0.142-0.105 0.229-0.12l1.976-0.311c0.194-0.023 0.372-0.114 0.502-0.256s0.202-0.325 0.204-0.516v-0.879zM10.273 22.601c-0.096 0.163-0.23 0.301-0.391 0.403s-0.345 0.166-0.536 0.185c-0.191 0.020-0.384-0.006-0.564-0.073s-0.34-0.176-0.468-0.316c-1.733-1.87-2.69-4.303-2.684-6.824s0.974-4.95 2.716-6.812c0.129-0.14 0.29-0.248 0.47-0.315s0.374-0.091 0.565-0.071c0.192 0.020 0.375 0.085 0.536 0.188s0.295 0.242 0.39 0.406l3.511 6.032c0.105 0.18 0.161 0.384 0.161 0.591s-0.055 0.411-0.161 0.591l-3.546 6.015zM16 26.143c-0.732 0-1.462-0.075-2.178-0.225-0.186-0.041-0.36-0.124-0.508-0.242s-0.264-0.269-0.341-0.44c-0.077-0.171-0.111-0.357-0.1-0.543s0.066-0.367 0.162-0.528l3.538-6.006c0.106-0.181 0.26-0.331 0.445-0.436s0.395-0.16 0.609-0.159h7.088c0.191-0 0.379 0.043 0.55 0.127s0.318 0.206 0.431 0.356c0.113 0.15 0.188 0.324 0.22 0.508s0.018 0.372-0.039 0.55c-1.345 4.078-5.262 7.038-9.877 7.038zM16.578 13.839l-3.501-6.016c-0.095-0.162-0.149-0.343-0.159-0.529s0.025-0.372 0.102-0.542c0.077-0.17 0.194-0.32 0.342-0.438s0.322-0.2 0.508-0.24c0.7-0.144 1.414-0.216 2.13-0.216 4.615 0 8.532 2.961 9.875 7.041 0.057 0.178 0.070 0.366 0.039 0.55s-0.107 0.358-0.22 0.508c-0.113 0.15-0.261 0.272-0.431 0.356s-0.359 0.128-0.55 0.127h-7.077c-0.215 0-0.427-0.055-0.612-0.16s-0.34-0.257-0.446-0.44z"></path>
</symbol>
<symbol id="icon-true" viewBox="0 0 32 32">
<path d="M16 32c8.837 0 16-7.163 16-16s-7.163-16-16-16c-8.837 0-16 7.163-16 16s7.163 16 16 16z"></path>
<path stroke-linejoin="round" stroke-linecap="round" stroke-miterlimit="4" stroke-width="2" d="M23 11l-9.1 11-3.9-4.125"></path>
</symbol>
<symbol id="icon-twitter" viewBox="0 0 32 32">
<path d="M31.162 6.655c-1.146 0.498-2.359 0.826-3.6 0.974 1.304-0.764 2.285-1.977 2.759-3.412-1.233 0.721-2.58 1.227-3.983 1.496-0.591-0.619-1.301-1.112-2.088-1.448s-1.634-0.508-2.49-0.507c-3.465 0-6.268 2.763-6.268 6.169-0.002 0.474 0.052 0.946 0.162 1.407-2.484-0.116-4.917-0.75-7.143-1.861s-4.195-2.673-5.781-4.588c-0.557 0.939-0.851 2.009-0.852 3.101 0 2.139 1.116 4.030 2.801 5.138-0.998-0.024-1.976-0.288-2.851-0.77v0.076c0 2.992 2.165 5.482 5.030 6.048-0.539 0.144-1.094 0.216-1.651 0.216-0.396 0.001-0.79-0.038-1.178-0.115 0.796 2.451 3.114 4.234 5.86 4.285-2.231 1.72-4.971 2.649-7.788 2.642-0.5-0.001-1-0.030-1.496-0.089 2.866 1.83 6.197 2.798 9.597 2.788 11.546 0 17.854-9.403 17.854-17.559 0-0.267-0.007-0.535-0.020-0.796 1.224-0.871 2.284-1.953 3.128-3.196z"></path>
</symbol>
<symbol id="icon-user" viewBox="0 0 32 32">
<path d="M21.306 2.327c-1.347-1.501-3.229-2.327-5.306-2.327-2.088 0-3.976 0.821-5.317 2.313-1.355 1.508-2.016 3.557-1.861 5.77 0.307 4.366 3.527 7.917 7.178 7.917s6.865-3.551 7.177-7.916c0.157-2.193-0.508-4.238-1.871-5.757zM28.184 32h-24.369c-0.319 0.004-0.635-0.065-0.925-0.202s-0.546-0.34-0.751-0.593c-0.45-0.555-0.631-1.313-0.497-2.079 0.584-3.344 2.408-6.154 5.274-8.126 2.546-1.751 5.772-2.714 9.083-2.714s6.537 0.964 9.083 2.714c2.866 1.972 4.689 4.781 5.274 8.125 0.134 0.766-0.047 1.524-0.497 2.079-0.204 0.253-0.461 0.455-0.751 0.593s-0.606 0.207-0.925 0.203z"></path>
</symbol>
</defs>
</svg>
